HIERARCHY
ROOT Hips
{
 OFFSET 0.000000 0.000000 0.000000
 CHANNELS 6 Xposition Yposition Zposition Yrotation Xrotation Zrotation
 JOINT Chest
 {
  OFFSET 0.000000 10.366939 -0.000175
  CHANNELS 3 Yrotation Xrotation Zrotation
  JOINT Chest2
  {
   OFFSET 0.000000 11.433790 0.000318
   CHANNELS 3 Yrotation Xrotation Zrotation
   JOINT Chest3
   {
    OFFSET 0.000000 10.331133 0.000000
    CHANNELS 3 Yrotation Xrotation Zrotation
    JOINT Chest4
    {
     OFFSET 0.000000 10.331133 0.000000
     CHANNELS 3 Yrotation Xrotation Zrotation
     JOINT Neck
     {
      OFFSET 0.000000 14.530095 0.000000
      CHANNELS 3 Yrotation Xrotation Zrotation
      JOINT Head
      {
       OFFSET 0.000000 9.616255 0.000757
       CHANNELS 3 Yrotation Xrotation Zrotation
       End Site
       {
        OFFSET 0.000000 18.398191 0.000395
       }
      }
     }
     JOINT RightCollar
     {
      OFFSET -3.159467 8.107572 0.000000
      CHANNELS 3 Yrotation Xrotation Zrotation
      JOINT RightShoulder
      {
       OFFSET -14.759419 0.000000 0.000000
       CHANNELS 3 Yrotation Xrotation Zrotation
       JOINT RightElbow
       {
        OFFSET 0.000000 -31.561777 0.000000
        CHANNELS 3 Yrotation Xrotation Zrotation
        JOINT RightWrist
        {
         OFFSET 0.000000 -25.811607 0.000000
         CHANNELS 3 Yrotation Xrotation Zrotation
         End Site
         {
          OFFSET 0.000000 -19.296333 0.000000
         }
        }
       }
      }
     }
     JOINT LeftCollar
     {
      OFFSET 3.159467 8.107572 0.000000
      CHANNELS 3 Yrotation Xrotation Zrotation
      JOINT LeftShoulder
      {
       OFFSET 14.759419 0.000000 0.000000
       CHANNELS 3 Yrotation Xrotation Zrotation
       JOINT LeftElbow
       {
        OFFSET 0.000000 -31.561777 0.000000
        CHANNELS 3 Yrotation Xrotation Zrotation
        JOINT LeftWrist
        {
         OFFSET 0.000000 -25.811607 0.000000
         CHANNELS 3 Yrotation Xrotation Zrotation
         End Site
         {
          OFFSET 0.000000 -19.296333 0.000000
         }
        }
       }
      }
     }
    }
   }
  }
 }
 JOINT RightHip
 {
  OFFSET -8.420485 0.000859 0.000088
  CHANNELS 3 Yrotation Xrotation Zrotation
  JOINT RightKnee
  {
   OFFSET 0.000000 -43.611855 -0.000083
   CHANNELS 3 Yrotation Xrotation Zrotation
   JOINT RightAnkle
   {
    OFFSET 0.000000 -42.630478 -0.000140
    CHANNELS 3 Yrotation Xrotation Zrotation
    JOINT RightToe
    {
     OFFSET 0.000000 -7.539428 17.119853
     CHANNELS 3 Yrotation Xrotation Zrotation
     End Site
     {
      OFFSET 0.000000 -1.595212 6.940629
     }
    }
   }
  }
 }
 JOINT LeftHip
 {
  OFFSET 8.420485 0.000859 0.000088
  CHANNELS 3 Yrotation Xrotation Zrotation
  JOINT LeftKnee
  {
   OFFSET 0.000000 -43.611855 -0.000083
   CHANNELS 3 Yrotation Xrotation Zrotation
   JOINT LeftAnkle
   {
    OFFSET 0.000000 -42.630478 -0.000140
    CHANNELS 3 Yrotation Xrotation Zrotation
    JOINT LeftToe
    {
     OFFSET 0.000000 -7.539428 17.119853
     CHANNELS 3 Yrotation Xrotation Zrotation
     End Site
     {
      OFFSET 0.000000 -1.595212 6.940629
     }
    }
   }
  }
 }
}
MOTION
Frames: 17
Frame Time: 0.008333
335.451513 94.306989 81.423566 -69.426665 -9.815989 0.560380 1.365663 4.829355 0.227933 0.624358 2.146931 0.028889 0.624358 2.146931 0.028889 0.468113 1.610230 0.019470 -1.726844 16.122366 0.489722 -3.390028 -6.210884 1.536014 -0.223840 3.485183 17.103004 -18.458770 -3.301837 -27.861286 17.813684 -1.996373 -7.971686 9.723202 -12.255388 -13.638842 4.288928 5.592926 -3.630481 16.347067 -5.114158 2.989296 -31.306870 1.252485 10.138908 -12.830061 -21.111677 13.632742 -12.882309 7.443474 -10.545361 -9.190034 6.741148 -2.442978 2.246959 -4.580513 7.971082 -0.001084 0.143825 -0.004043 9.040509 5.892876 9.047212 -0.377182 11.059981 1.102364 -0.243914 -7.660318 -8.003980 -0.045561 -0.205507 -0.011100
335.481932 94.307520 81.413513 -69.427838 -9.780328 0.561375 1.370378 4.841530 0.218320 0.625930 2.153829 0.025613 0.625930 2.153829 0.025613 0.469302 1.615400 0.017001 -1.721682 16.103552 0.498434 -3.384073 -6.245673 1.550945 -0.224568 3.463841 17.091365 -18.455942 -3.314622 -27.905979 17.747276 -2.015526 -7.877605 9.768956 -12.268656 -13.300010 4.280869 5.582759 -3.621954 16.370618 -5.137647 3.011424 -31.367267 1.139616 10.105370 -12.876567 -20.801365 13.563114 -12.898424 7.368960 -10.547443 -9.161089 6.773481 -2.428019 2.250190 -4.576245 7.959786 -0.006346 0.143961 -0.005697 9.060128 5.833590 9.044845 -0.402157 11.058767 1.088891 -0.244596 -7.638233 -7.995229 -0.042463 -0.204105 -0.010927
335.514486 94.307899 81.402379 -69.430084 -9.744369 0.560446 1.375539 4.857994 0.208383 0.628116 2.161603 0.021699 0.628116 2.161603 0.021699 0.470954 1.621226 0.014050 -1.710019 16.084583 0.512298 -3.367897 -6.280769 1.573113 -0.229883 3.449435 17.083044 -18.433488 -3.339119 -27.943477 17.698933 -2.044297 -7.789034 9.840491 -12.254533 -12.977452 4.269432 5.576199 -3.607171 16.371555 -5.168287 3.024615 -31.410740 1.126029 10.120666 -12.918657 -20.582968 13.487575 -12.911334 7.293391 -10.543166 -9.123864 6.805797 -2.418503 2.244794 -4.571706 7.951793 -0.010109 0.144753 -0.008035 9.079080 5.767530 9.042348 -0.434451 11.067596 1.077359 -0.233104 -7.617691 -7.987411 -0.040234 -0.203840 -0.011541
335.549176 94.308055 81.390222 -69.429985 -9.705725 0.561979 1.376101 4.874204 0.195770 0.629656 2.168245 0.017410 0.629656 2.168245 0.017410 0.472124 1.626204 0.010821 -1.701024 16.064268 0.527428 -3.357182 -6.318243 1.598645 -0.226460 3.436014 17.075030 -18.396965 -3.360553 -27.974801 17.673507 -2.087188 -7.716168 9.917053 -12.214677 -12.664626 4.263633 5.564232 -3.599561 16.361128 -5.201039 3.044588 -31.492185 1.019967 10.095906 -12.949117 -20.243041 13.422585 -12.926494 7.213732 -10.541794 -9.099709 6.837631 -2.408955 2.252412 -4.567518 7.944855 -0.018048 0.146994 -0.012175 9.090788 5.703962 9.036638 -0.474129 11.064718 1.062758 -0.211500 -7.590939 -7.981005 -0.036983 -0.202057 -0.010331
335.584515 94.308924 81.377902 -69.431458 -9.669801 0.564452 1.381574 4.896548 0.185428 0.632710 2.177677 0.013173 0.632710 2.177677 0.013173 0.474428 1.633273 0.007623 -1.695512 16.040634 0.541424 -3.352635 -6.361815 1.623437 -0.229286 3.412847 17.065292 -18.335292 -3.380808 -28.005330 17.682702 -2.125133 -7.648680 10.002520 -12.162989 -12.387287 4.250030 5.549649 -3.595106 16.330854 -5.245316 3.057350 -31.536561 1.008010 10.095074 -12.989045 -19.975553 13.366186 -12.944918 7.133742 -10.543702 -9.062422 6.872771 -2.396560 2.255776 -4.562573 7.935564 -0.022479 0.147019 -0.014807 9.096302 5.637827 9.030213 -0.507774 11.073981 1.047125 -0.185473 -7.565276 -7.973956 -0.034617 -0.203978 -0.009607
335.623596 94.309901 81.364137 -69.436444 -9.630129 0.567896 1.387677 4.917588 0.171496 0.635645 2.187661 0.007795 0.635645 2.187661 0.007795 0.476648 1.640756 0.003569 -1.686130 16.013202 0.557774 -3.341849 -6.412471 1.651328 -0.228060 3.391074 17.060326 -18.266029 -3.413172 -28.026540 17.746819 -2.166106 -7.595907 10.069449 -12.092183 -12.154590 4.231134 5.522967 -3.584898 16.291449 -5.290144 3.063495 -31.579320 0.902327 10.060420 -13.040722 -19.589373 13.316297 -12.953496 7.047484 -10.544702 -9.031087 6.909308 -2.382619 2.261104 -4.555699 7.927653 -0.029019 0.147384 -0.020030 9.117672 5.565600 9.022415 -0.556945 11.079508 1.032842 -0.156237 -7.536017 -7.964992 -0.032425 -0.205053 -0.010672
335.664606 94.310863 81.351144 -69.441531 -9.588831 0.575491 1.395483 4.938361 0.158409 0.640182 2.196272 0.002867 0.640182 2.196272 0.002867 0.480067 1.647209 -0.000152 -1.678570 15.987919 0.571680 -3.333516 -6.459169 1.675267 -0.229992 3.378386 17.055520 -18.173510 -3.443105 -28.054140 17.842377 -2.211860 -7.553655 10.124893 -12.018777 -11.996687 4.210642 5.504191 -3.583135 16.212516 -5.340604 3.071401 -31.564915 0.883123 10.054144 -13.120578 -19.274818 13.275702 -12.965701 6.956081 -10.552589 -8.991190 6.948612 -2.365396 2.269329 -4.549930 7.922036 -0.036552 0.147730 -0.027314 9.140086 5.488133 9.010050 -0.602282 11.090594 1.018477 -0.134963 -7.505532 -7.953368 -0.030254 -0.208729 -0.012081
335.707951 94.311529 81.335800 -69.443399 -9.540509 0.582201 1.402170 4.951567 0.147448 0.643720 2.202023 -0.002379 0.643720 2.202023 -0.002379 0.482739 1.651517 -0.004104 -1.672212 15.964237 0.584114 -3.326851 -6.502907 1.696854 -0.230725 3.369864 17.047882 -18.072454 -3.472084 -28.070802 17.970775 -2.264602 -7.541479 10.179802 -11.937330 -11.899446 4.188818 5.482890 -3.586663 16.133937 -5.390442 3.082058 -31.572493 0.775614 10.012152 -13.219240 -18.848440 13.239314 -12.977750 6.855992 -10.554118 -8.963386 6.989079 -2.352619 2.282310 -4.546195 7.912842 -0.041409 0.150628 -0.031229 9.179380 5.393475 9.004639 -0.665189 11.110167 0.994265 -0.121173 -7.475697 -7.938816 -0.027159 -0.213200 -0.011281
335.750074 94.312493 81.319951 -69.448559 -9.493821 0.590408 1.408384 4.971169 0.136026 0.646950 2.209680 -0.007546 0.646950 2.209680 -0.007546 0.485180 1.657255 -0.007999 -1.663993 15.937922 0.595778 -3.316517 -6.551614 1.716417 -0.236386 3.359888 17.038303 -17.953198 -3.498076 -28.078477 18.142818 -2.317429 -7.576077 10.216313 -11.878605 -11.869212 4.172288 5.469403 -3.586007 16.045984 -5.456815 3.083023 -31.569526 0.766186 10.011142 -13.358607 -18.520342 13.194862 -12.991662 6.754272 -10.556749 -8.930911 7.035498 -2.340933 2.293562 -4.548007 7.903455 -0.046966 0.154550 -0.034739 9.232244 5.298246 8.999807 -0.730783 11.132136 0.972006 -0.117894 -7.443518 -7.924114 -0.024601 -0.220948 -0.010949
335.791854 94.313017 81.301118 -69.458290 -9.443752 0.594096 1.414646 4.992508 0.128765 0.650196 2.218751 -0.011776 0.650196 2.218751 -0.011776 0.487629 1.664053 -0.011193 -1.653272 15.906180 0.606406 -3.301301 -6.610508 1.733314 -0.232354 3.340426 17.023718 -17.819954 -3.524693 -28.080595 18.336440 -2.385024 -7.637987 10.256945 -11.827447 -11.894187 4.163103 5.442823 -3.594013 15.929982 -5.530033 3.084655 -31.606623 0.691216 9.985514 -13.467098 -18.110860 13.131185 -13.007447 6.650972 -10.555632 -8.892033 7.078195 -2.324557 2.301035 -4.547893 7.890595 -0.054154 0.159324 -0.037537 9.307084 5.196013 9.006111 -0.807347 11.153463 0.945720 -0.121775 -7.411622 -7.910187 -0.021154 -0.227415 -0.009575
335.833389 94.312732 81.281788 -69.473773 -9.387558 0.599372 1.418705 5.013169 0.117150 0.652124 2.226890 -0.016837 0.652124 2.226890 -0.016837 0.489093 1.670152 -0.015003 -1.638653 15.875613 0.614939 -3.278029 -6.667412 1.744845 -0.214132 3.327310 17.013345 -17.675627 -3.557590 -28.076846 18.566334 -2.442158 -7.724205 10.262051 -11.837259 -11.973560 4.157303 5.418951 -3.598617 15.809304 -5.608633 3.089142 -31.653387 0.714827 10.006167 -13.555340 -17.813343 13.037686 -13.034189 6.538562 -10.554966 -8.832886 7.119705 -2.307779 2.305468 -4.547360 7.877284 -0.061402 0.164395 -0.040517 9.414404 5.084842 9.015054 -0.891579 11.174101 0.919772 -0.150325 -7.384019 -7.893470 -0.018129 -0.230541 -0.008855
335.874936 94.312701 81.262600 -69.489491 -9.332120 0.606937 1.423714 5.032329 0.104179 0.654267 2.235512 -0.022742 0.654267 2.235512 -0.022742 0.490721 1.676612 -0.019449 -1.623555 15.845169 0.618964 -3.252212 -6.724254 1.747792 -0.195064 3.311438 17.006177 -17.524068 -3.589825 -28.067531 18.811476 -2.489025 -7.827518 10.240127 -11.908259 -12.100231 4.154227 5.395043 -3.603052 15.665802 -5.695010 3.089976 -31.743372 0.667110 10.005558 -13.638548 -17.453914 12.966545 -13.063336 6.425004 -10.557411 -8.781484 7.162379 -2.293383 2.323313 -4.547525 7.866886 -0.070902 0.168853 -0.045039 9.523104 4.976849 9.025474 -0.973287 11.189863 0.886648 -0.180861 -7.354302 -7.874936 -0.014535 -0.233083 -0.006364
335.917089 94.312003 81.243506 -69.499562 -9.273094 0.614135 1.429465 5.052878 0.092670 0.656354 2.244454 -0.027821 0.656354 2.244454 -0.027821 0.492305 1.683313 -0.023275 -1.614353 15.816184 0.622866 -3.237292 -6.778212 1.752612 -0.189724 3.294600 16.998832 -17.359134 -3.627549 -28.054451 19.083166 -2.516524 -7.954146 10.174960 -12.050111 -12.261205 4.140846 5.369137 -3.606449 15.497426 -5.779883 3.082831 -31.800586 0.698928 10.040118 -13.744155 -17.172343 12.919269 -13.105211 6.310589 -10.560064 -8.719624 7.196659 -2.276431 2.333014 -4.541021 7.854373 -0.079728 0.172458 -0.048603 9.633002 4.861604 9.033596 -1.047006 11.210042 0.859851 -0.221195 -7.328709 -7.858732 -0.010895 -0.232691 -0.004313
335.959642 94.310802 81.222196 -69.515674 -9.207141 0.609396 1.438302 5.063049 0.093008 0.661069 2.249855 -0.032062 0.661069 2.249855 -0.032062 0.495856 1.687359 -0.026478 -1.604789 15.791599 0.622928 -3.220168 -6.824142 1.750001 -0.182682 3.287458 16.991539 -17.178557 -3.666045 -28.043516 19.334666 -2.546542 -8.071119 10.063607 -12.244830 -12.455428 4.129270 5.350102 -3.609683 15.312864 -5.867959 3.065697 -31.904718 0.648410 10.045737 -13.860404 -16.786352 12.902057 -13.145587 6.194081 -10.548349 -8.662583 7.224186 -2.261084 2.358372 -4.552094 7.847820 -0.099523 0.196238 -0.058163 9.750534 4.742209 9.059755 -1.126154 11.215820 0.821289 -0.257372 -7.273250 -7.839335 -0.012059 -0.252981 -0.002086
336.003398 94.309022 81.203580 -69.541830 -9.136560 0.612645 1.453800 5.072624 0.084733 0.667860 2.253431 -0.034942 0.667860 2.253431 -0.034942 0.500959 1.690038 -0.028667 -1.599160 15.771128 0.623362 -3.210399 -6.862301 1.749389 -0.174536 3.282506 16.981639 -17.009828 -3.704847 -28.024365 19.578728 -2.594682 -8.178458 9.895896 -12.464629 -12.678499 4.108509 5.335387 -3.612322 15.105411 -5.952186 3.044657 -31.967861 0.673088 10.081763 -14.012379 -16.448551 12.916407 -13.180025 6.066140 -10.542832 -8.597783 7.257643 -2.246763 2.378782 -4.544866 7.837459 -0.107788 0.201679 -0.062147 9.882510 4.614509 9.073596 -1.195695 11.237080 0.791856 -0.304626 -7.255879 -7.822476 -0.009432 -0.246692 0.000828
336.047856 94.307333 81.185293 -69.559082 -9.061578 0.611663 1.464915 5.079287 0.077863 0.673858 2.255302 -0.036708 0.673858 2.255302 -0.036708 0.505463 1.691438 -0.030015 -1.592164 15.750958 0.622765 -3.197691 -6.899978 1.746342 -0.168599 3.275752 16.976582 -16.835695 -3.748183 -28.008712 19.759015 -2.660659 -8.264401 9.700903 -12.717343 -12.907757 4.088167 5.317441 -3.614506 14.885124 -6.035753 3.016361 -32.100625 0.611946 10.085669 -14.111601 -15.994399 12.969010 -13.240322 5.936929 -10.541552 -8.527639 7.282224 -2.218893 2.408778 -4.532877 7.821091 -0.113858 0.206993 -0.067032 10.002650 4.484419 9.091162 -1.264803 11.251585 0.757989 -0.351824 -7.235259 -7.806193 -0.007631 -0.239547 0.005172
336.092707 94.306080 81.169064 -69.574933 -8.985166 0.611190 1.474970 5.084593 0.072291 0.677351 2.257518 -0.038364 0.677351 2.257518 -0.038364 0.508089 1.693098 -0.031273 -1.582500 15.730627 0.620564 -3.179421 -6.938084 1.739325 -0.156919 3.276245 16.976133 -16.655814 -3.799964 -27.997488 19.870354 -2.721845 -8.332425 9.465502 -13.023107 -13.142815 4.067515 5.300698 -3.612672 14.650483 -6.111485 2.980364 -32.222221 0.642432 10.135494 -14.186795 -15.686948 13.056065 -13.314403 5.803335 -10.542230 -8.443959 7.307379 -2.192270 2.439304 -4.520056 7.807400 -0.119398 0.211140 -0.072134 10.119574 4.352796 9.104858 -1.335612 11.268198 0.723983 -0.396369 -7.215500 -7.788024 -0.004732 -0.233235 0.008883
